<?xml version="1.0" encoding="utf-8"?>
<!-- Generator: Adobe Illustrator 21.0.0, SVG Export Plug-In . SVG Version: 6.00 Build 0)  -->
<svg version="1.1" id="Layer_1" xmlns="http://www.w3.org/2000/svg" xmlns:xlink="http://www.w3.org/1999/xlink" x="0px" y="0px"
	 viewBox="0 0 605.8 185.1" style="enable-background:new 0 0 605.8 185.1;" xml:space="preserve">
<style type="text/css">
	.st0{fill:#4F4F4F;}
</style>
<g id="XMLID_136_">
	<g id="XMLID_125_">
		<g id="XMLID_126_">
			<g id="XMLID_131_">
				<path id="XMLID_145_" class="st0" d="M198.2,63.9c-2.9-1.2-5.9-2.1-9-2.7c-1.5-0.3-3.1-0.5-4.7-0.7c-1.6-0.2-3.2-0.2-4.8-0.2
					c-6.4,0-12.5,1.2-18.2,3.6c-5.7,2.4-10.7,5.8-15,10.1c-1.7,1.7-3.2,3.5-4.7,5.4c-1.1,1.5-2.1,3-3,4.6c-0.9,1.6-1.8,3.3-2.5,5
					c-2.5,5.7-3.8,11.9-3.8,18.4c0,3.7,0.4,7.2,1.1,10.6c0.5,2,1,4,1.8,6c0.2,0.7,0.5,1.3,0.8,2c2.5,5.7,5.8,10.7,10.1,15
					c4.3,4.2,9.3,7.6,15,10c5.7,2.4,11.9,3.6,18.4,3.6c1.6,0,3.2-0.1,4.8-0.2c1.6-0.2,3.2-0.4,4.7-0.7c3.1-0.6,6.1-1.5,9-2.7
					c5.8-2.4,10.8-5.7,15.1-9.9c3.7-3.7,6.8-7.9,9.1-12.8v-20.9V86.6c-2.3-4.9-5.4-9.2-9.1-12.8C209,69.6,204,66.3,198.2,63.9z
					 M203,118.1c-1.3,3.3-3.1,6.2-5.4,8.7c-2.3,2.5-5,4.4-8,5.8c-0.8,0.3-1.5,0.7-2.3,0.9c-2,0.7-4,1-6.2,1.1c-0.4,0-0.9,0-1.3,0
					c-3.5,0-6.7-0.7-9.8-2.1c-3.1-1.4-5.7-3.3-8-5.8c-2.3-2.5-4.1-5.4-5.4-8.7c-1.3-3.3-2-6.9-2-10.7c0-3.8,0.7-7.4,2-10.7
					c1.3-3.3,3.1-6.2,5.4-8.7c2.3-2.5,5-4.4,8-5.8c3.1-1.4,6.3-2.1,9.8-2.1c0.4,0,0.9,0,1.3,0c2.1,0.1,4.2,0.5,6.2,1.1
					c0.8,0.3,1.6,0.6,2.3,0.9c3.1,1.4,5.7,3.3,8,5.8c2.3,2.5,4.1,5.4,5.4,8.7c1.3,3.3,2,6.9,2,10.7C205,111.3,204.4,114.8,203,118.1
					z"/>
				<g id="XMLID_139_">
					<path id="XMLID_144_" class="st0" d="M133.6,118c0.5,2,1,4,1.8,6c-0.9-2.4-1.5-4.8-2-7.4C133.5,117.1,133.5,117.6,133.6,118z"
						/>
					<path id="XMLID_143_" class="st0" d="M133.1,115.1c-0.4-2.5-0.6-5-0.6-7.6C132.5,110.1,132.8,112.6,133.1,115.1z"/>
					<path id="XMLID_140_" class="st0" d="M131.9,127.8c-0.3-0.7-0.6-1.4-0.9-2.2c-2.1-5.7-3.2-11.8-3.2-18.2c0-7.1,1.4-14,4.1-20.3
						c1.6-3.8,3.7-7.3,6.1-10.5c0.7-1,1.6-1.9,2.4-2.8c-0.5-1.8-1.1-3.6-1.7-5.3c-2.9-7.6-6.8-14.1-12-19.7
						c-5.1-5.6-11.2-10-18.3-13.3c-7.1-3.3-14.8-5-23.2-5H34v124.2h51.2c8.4,0,16.1-1.6,23.2-4.9c7.1-3.3,13.2-7.7,18.3-13.4
						c2.1-2.3,4-4.9,5.7-7.5C132.3,128.5,132,128.2,131.9,127.8z M116,108.7c-1.9,5.1-4.6,9.6-8,13.3c-3.5,3.8-7.7,6.7-12.6,8.8
						c-5,2.1-10.6,3.2-16.8,3.2H57.8V49.4h20.7c6.3,0,12,1.1,17.1,3.3c5.1,2.2,9.3,5.3,12.8,9.2c3.5,3.9,6.1,8.4,8,13.6
						c1.8,5.2,2.7,10.7,2.6,16.5C118.8,98,117.9,103.6,116,108.7z"/>
				</g>
				<polygon id="XMLID_138_" class="st0" points="249.6,102.9 249.6,30.4 227.1,30.4 227.1,107.4 227.1,154.6 249.6,154.6 
					249.6,114.4 280.6,154.6 294.7,154.6 294.7,139.8 270,108.5 294.7,78.9 294.7,64.9 280.6,64.9 				"/>
				<path id="XMLID_137_" class="st0" d="M428.4,84.8c-0.2-0.6-0.4-1.2-0.6-1.8c-0.5-1.2-1-2.3-1.5-3.4c-1.6-3.2-3.6-6-5.9-8.3
					c-3.1-3.1-6.7-5.3-10.8-6.7c-4.1-1.4-8.5-2.1-13.1-2.1c-4.2,0-8.2,0.5-11.9,1.5c-1.2,0.3-2.4,0.7-3.6,1.2
					c-4.7,1.8-9.4,4.7-14,8.8c-0.8-0.9-1.7-1.8-2.6-2.6s-1.8-1.6-2.8-2.3c-1-0.7-1.9-1.4-3-2s-2.1-1.1-3.2-1.6
					c-1.1-0.5-2.2-0.9-3.3-1.3c-1.1-0.4-2.2-0.7-3.2-0.9c-1.1-0.2-2.2-0.4-3.2-0.6c-1.1-0.1-2.2-0.2-3.2-0.2
					c-3.9,0-7.7,0.8-11.4,2.5c-2.3,1-4.5,2.3-6.4,3.7c-0.4,0.3-0.8,0.6-1.1,0.9c-0.8,0.6-1.5,1.2-2.2,1.9v0l0,0l0-6.7h-15h-7v89.7
					h22.1V89.3l0,0c0.4-0.4,0.8-0.7,1.2-1.1c0.6-0.5,1.1-1,1.7-1.4c0.2-0.1,0.3-0.2,0.5-0.4c1.6-1.2,3.1-2.2,4.7-2.9
					c0.1-0.1,0.3-0.1,0.4-0.2c0.4-0.2,0.8-0.3,1.2-0.5c0.5-0.2,0.9-0.3,1.4-0.4c0.4-0.1,0.9-0.2,1.3-0.3c0.6-0.1,1.3-0.2,2-0.3
					c0.4,0,0.9-0.1,1.3-0.1c0.4,0,0.8,0,1.2,0h0c1.1,0,2.1,0.1,3.1,0.3c0.2,0.1,0.5,0.1,0.7,0.2c2.7,0.7,5.1,2.2,7.1,4.4
					c1.5,1.6,2.6,3.6,3.4,6c0.4,1.2,0.7,2.5,0.8,3.9c0.2,1.4,0.3,2.9,0.3,4.4v53.6h22.1v-53.6c0-1.1,0-2.2-0.1-3.3
					c-0.1-1.1-0.1-2.1-0.3-3.2c-0.2-2-0.6-4-1-5.8c2.9-2.5,5.8-4.3,8.8-5.4c3-1.1,6.2-1.6,9.6-1.6c4.4,0,8.1,1.6,11.1,4.9
					c0.8,0.8,1.4,1.7,2,2.7c0.6,1,1,2.1,1.4,3.3s0.7,2.5,0.8,3.9c0.2,1.4,0.3,2.9,0.3,4.4v53.6h22.1v-24.2c-0.4-0.9-0.9-1.8-1.3-2.7
					c-2.7-6.3-4.1-13.1-4.1-20.2c0-7,1.3-13.7,4-20c-0.1-0.3-0.1-0.5-0.2-0.8C428.8,86,428.6,85.4,428.4,84.8z"/>
				<path id="XMLID_133_" class="st0" d="M510.2,73.4c-4.4-4.1-9.5-7.4-15.2-9.7c-5.7-2.3-11.7-3.5-17.9-3.5c-1.6,0-3.2,0.1-4.8,0.2
					c-4.8,0.5-9.3,1.6-13.6,3.5c-5.7,2.5-10.7,5.8-15,10.1c-4.3,4.2-7.7,9.2-10.1,15c-2.5,5.7-3.7,11.9-3.7,18.4
					c0,1.6,0.1,3.2,0.2,4.8c0.5,4.7,1.6,9.3,3.4,13.6c0.3,0.7,0.6,1.4,1,2.1c1.7,3.5,3.7,6.7,6.1,9.5c0.9,1.2,2,2.3,3,3.3
					c1.6,1.6,3.3,3.1,5.1,4.4c1.8,1.3,3.7,2.6,5.7,3.7c1.3,0.7,2.7,1.4,4.2,2c5.8,2.5,12,3.7,18.6,3.7c2.5,0,4.9-0.1,7.2-0.4
					c3.9-0.4,7.7-1.3,11.4-2.5c0.7-0.2,1.5-0.5,2.2-0.8c5.2-2,10.4-5,15.8-9.1l-14-14.1c-2.7,2.4-6,4.3-10,5.7c-4,1.4-8,2.1-12,2.1
					c-3.3,0-6.3-0.5-9-1.5c-2.7-1-5.1-2.3-7.3-4c-2.1-1.7-4-3.7-5.4-6.1c-1.5-2.3-2.6-4.8-3.4-7.4h66.9V86.5
					C517.4,81.5,514.2,77.1,510.2,73.4z M452.9,98.6c1.3-4.3,3.4-7.9,6.2-10.9c0.9-1,1.9-1.9,3-2.8c1.6-1.3,3.4-2.4,5.2-3.2
					c3-1.4,6.2-2,9.7-2c3.5,0,6.8,0.7,9.9,2c1.8,0.8,3.6,1.9,5.3,3.2c1.1,0.9,2.1,1.8,3.1,2.8c2.8,3,4.9,6.7,6.2,10.9H452.9z"/>
				<path id="XMLID_132_" class="st0" d="M594.4,71.5c-3.2-3.1-6.8-5.3-10.9-6.8c-4.1-1.5-8.4-2.3-13-2.3c-4,0-8.1,0.6-12.4,1.9
					c-4.3,1.2-8.1,3.2-11.3,5.7l-0.2-39.6h-22.1v124.2h22.1V87.6c0.7-0.5,1.4-0.9,2.2-1.3c2.2-1.2,4.4-2.3,6.8-3
					c3.1-1,6.3-1.6,9.7-1.6c2.3,0,4.4,0.4,6.5,1.2c1.1,0.4,2,0.9,3,1.5c0.9,0.6,1.8,1.3,2.6,2.1c1.6,1.6,2.9,3.6,3.8,6.1
					c0.2,0.6,0.5,1.2,0.6,1.9c0.5,2,0.8,4.2,0.8,6.6v53.7h22.1V99.4c0-6.3-0.9-11.8-2.8-16.4C600.1,78.4,597.6,74.5,594.4,71.5z"/>
			</g>
			<g id="XMLID_127_">
				<path id="XMLID_128_" class="st0" d="M592.6,32.3h-2.9v9h-2.1v-9h-2.9v-1.8h8V32.3z M604.7,41.2h-2V34l-3.4,5.8L596,34v7.3h-2
					V30.4h2.4l2.9,5.2l3-5.2h2.3V41.2z"/>
			</g>
		</g>
	</g>
</g>
</svg>
