<?xml version="1.0" encoding="utf-8"?>
<!-- Generator: Adobe Illustrator 21.0.0, SVG Export Plug-In . SVG Version: 6.00 Build 0)  -->
<svg version="1.1" id="Layer_1" xmlns="http://www.w3.org/2000/svg" xmlns:xlink="http://www.w3.org/1999/xlink" x="0px" y="0px"
	 viewBox="0 0 216.4 181.5" style="enable-background:new 0 0 216.4 181.5;" xml:space="preserve">
<style type="text/css">
	.st0{fill:#575757;}
</style>
<g>
	<g>
		<path class="st0" d="M12.1,61.4C-4,77.6-4,103.9,12.1,120.1l57.3,57.3c2.9,2.9,6.2,4.1,9.5,4.2c9,0.1,17.4-9.2,12.9-19.4
			c0,0-5-8.6-11.4-19.4l-21.1-36c-0.2-0.4-0.4-0.9-0.5-1.3c-0.1-0.1-0.1-0.2-0.2-0.3C39.6,71.2,44.4,32.3,68.4,5.2L12.1,61.4z"/>
		<path class="st0" d="M91.7,7.5C89.4,4,85.4,1.8,81.3,1.8c-3.1,0-6,1.3-8.4,3.6l-1,1C51.2,30,45.6,62,56.5,91.2
			c0-2.4,0.2-4.8,0.6-7.2c0.8-4.6,2.5-9.1,5-13.3l30.4-52C94.2,14.8,93.9,10.8,91.7,7.5z"/>
	</g>
	<g>
		<path class="st0" d="M204.3,120.1c16.2-16.2,16.2-42.5,0-58.6L147,4.2c-2.9-2.9-6.2-4.1-9.5-4.2c-9-0.1-17.4,9.2-12.9,19.4
			c0,0,5,8.6,11.4,19.4l21.1,36c0.2,0.4,0.4,0.9,0.5,1.3c0.1,0.1,0.1,0.2,0.2,0.3c19.2,33.8,14.3,72.7-9.7,99.8L204.3,120.1z"/>
		<path class="st0" d="M159.9,90.3c0,2.4-0.2,4.8-0.6,7.2c-0.8,4.6-2.5,9.1-5,13.3l-30.4,52c-1.6,3.9-1.4,7.8,0.8,11.1
			c2.3,3.5,6.3,5.7,10.4,5.7h0c3.1,0,6-1.3,8.4-3.6l1-1C165.3,151.5,170.8,119.5,159.9,90.3z"/>
	</g>
</g>
</svg>
