<?xml version="1.0" encoding="utf-8"?>
<!-- Generator: Adobe Illustrator 21.0.0, SVG Export Plug-In . SVG Version: 6.00 Build 0)  -->
<svg version="1.1" id="Layer_1" xmlns="http://www.w3.org/2000/svg" xmlns:xlink="http://www.w3.org/1999/xlink" x="0px" y="0px"
	 viewBox="0 0 241.8 185.1" style="enable-background:new 0 0 241.8 185.1;" xml:space="preserve">
<style type="text/css">
	.st0{fill:#4F4F4F;}
</style>
<g id="XMLID_136_">
	<g id="XMLID_125_">
		<g id="XMLID_148_">
			<g id="XMLID_152_">
				<path id="XMLID_154_" class="st0" d="M13.1,63.5c-16,16-16,42,0,58l56.6,56.6c2.8,2.8,6.2,4.1,9.4,4.1
					c8.9,0.1,17.2-9.1,12.8-19.2c0,0-5-8.5-11.2-19.2l-20.8-35.6c-0.2-0.4-0.4-0.9-0.5-1.3c-0.1-0.1-0.1-0.2-0.2-0.3
					C40.2,73.2,45,34.8,68.7,7.9L13.1,63.5z"/>
				<path id="XMLID_153_" class="st0" d="M91.8,10.2c-2.3-3.5-6.2-5.6-10.3-5.6c-3.1,0-5.9,1.2-8.3,3.6l-1,1
					C51.7,32.4,46.2,64.1,57,92.9c0-2.4,0.2-4.7,0.6-7.1c0.8-4.5,2.5-9,4.9-13.2l30.1-51.4C94.2,17.4,94,13.5,91.8,10.2z"/>
			</g>
			<g id="XMLID_149_">
				<path id="XMLID_151_" class="st0" d="M203.1,121.5c16-16,16-42,0-58L146.4,6.9c-2.8-2.8-6.2-4.1-9.4-4.1
					c-8.9-0.1-17.2,9.1-12.8,19.2c0,0,5,8.5,11.2,19.2l20.8,35.6c0.2,0.4,0.4,0.9,0.5,1.3c0.1,0.1,0.1,0.2,0.2,0.3
					c18.9,33.5,14.1,71.8-9.6,98.7L203.1,121.5z"/>
				<path id="XMLID_150_" class="st0" d="M159.2,92.1c0,2.4-0.2,4.7-0.6,7.1c-0.8,4.5-2.5,9-4.9,13.2l-30.1,51.4
					c-1.6,3.8-1.3,7.7,0.8,11c2.3,3.5,6.2,5.6,10.3,5.6h0c3.1,0,5.9-1.2,8.3-3.6l1-1C164.5,152.6,170,120.9,159.2,92.1z"/>
			</g>
		</g>
	</g>
</g>
</svg>
