<?xml version="1.0" encoding="utf-8"?>
<!-- Generator: Adobe Illustrator 21.0.0, SVG Export Plug-In . SVG Version: 6.00 Build 0)  -->
<svg version="1.1" id="Layer_1" xmlns="http://www.w3.org/2000/svg" xmlns:xlink="http://www.w3.org/1999/xlink" x="0px" y="0px"
	 viewBox="0 0 1920 1080" style="enable-background:new 0 0 1920 1080;" xml:space="preserve">
<style type="text/css">
	.st0{fill:none;stroke:#000000;stroke-width:2;stroke-miterlimit:10;}
</style>
<g id="main">
	<g>
		<path d="M1665,579c0,0-139-3-351-72s-208-8-320,12s-110-90-260-81C53.2,478.9,606,782,926,751s308-112,424-112S1665,579,1665,579z
			"/>
	</g>
	<path class="st0" d="M591.2,694.1c-6.2-0.5-11.3,4.8-14.8,10c-23.7,34.4-26.2,80.5-51.6,113.6c-15.9,20.7-40.3,34.6-66.2,37.8
		c-6.8,0.8-14,0.9-20.4-1.4c-14.8-5.4-22.1-21.8-26.6-36.9C390.1,744.7,399.5,663.7,437,598"/>
	<path class="st0" d="M640.6,710.3c-11.7,0.8-18.9,12.7-24.4,23.1c-10.5,19.5-22.6,38.9-40.7,51.8c-18,12.9-43.1,18-62.6,7.4
		c-11.5-6.3-19.8-17.2-25.8-28.8c-24.5-47-13.1-109.9,26.3-145.3"/>
	<path class="st0" d="M432.1,601.6c-7.9,1.5-12.4,9.7-15.6,17c-5.5,12.3-10.6,24.8-15.3,37.5c-4.9,13.2-9.4,26.9-9.2,40.9
		c0.4,29.7,23.6,56.7,52.2,64.9s60.6-1,83.1-20.4c6.3-5.4,12-11.7,15-19.4c7.1-18-2.1-38.4,1-57.5"/>
	<path class="st0" d="M786.7,734c-13.3,18.4-29.5,34.6-47.9,48"/>
	<path class="st0" d="M810.1,752.3c-5.7,1.4-10,5.9-14.9,9c-6.8,4.3-14.8,6.2-22.3,8.9c-25,9-46,28.5-56.9,52.8"/>
	<path class="st0" d="M1050.8,720.9c-4.9,5.8-9.8,11.6-14.7,17.4c-4.5,5.3-9.1,10.7-14.7,14.9c-13.7,10.2-33.2,13.1-42.9,27.2"/>
	<path class="st0" d="M849,475.6c0.2-6.9,4.2-13.7,10.2-17.1"/>
	<path class="st0" d="M802.6,450.1c-0.7-6.3-4.8-12.2-10.4-15.1"/>
	<path class="st0" d="M667.5,450.2c-3.8-7.2-11.3-11.9-19.2-13.8c-7.9-2-16.1-1.6-24.2-1"/>
	<path class="st0" d="M705.7,450c-2-10.9-7-21.3-14.3-29.6"/>
	<path class="st0" d="M549,475.1c-4.1-11.2-8.7-22.2-13.9-33c-1.1-2.3-2.3-4.6-4.1-6.5c-2.4-2.5-5.8-3.8-9.1-5
		c-5.8-2.2-11.7-4.4-17.5-6.6"/>
</g>
<g id="charkh1">
	<g>
		<g>
			<g>
				<path d="M447,333c28,0,55.1,5.5,80.6,16.3c24.6,10.4,46.8,25.4,65.8,44.4s33.9,41.2,44.4,65.8C648.5,484.9,654,512,654,540
					s-5.5,55.1-16.3,80.6c-10.4,24.6-25.4,46.8-44.4,65.8s-41.2,33.9-65.8,44.4C502.1,741.5,475,747,447,747s-55.1-5.5-80.6-16.3
					c-24.6-10.4-46.8-25.4-65.8-44.4c-19-19-33.9-41.2-44.4-65.8C245.5,595.1,240,568,240,540s5.5-55.1,16.3-80.6
					c10.4-24.6,25.4-46.8,44.4-65.8c19-19,41.2-33.9,65.8-44.4C391.9,338.5,419,333,447,333 M447,320c-121.5,0-220,98.5-220,220
					s98.5,220,220,220s220-98.5,220-220S568.5,320,447,320L447,320z"/>
			</g>
			<g>
				<path d="M257,445c-1,14,151.3,95,190,100c5.4,0.7,5.4-12.4,0-13c-54-6-121-42-176-108C267.5,419.8,257.4,439.5,257,445z"/>
			</g>
		</g>
		<g>
			<g>
				<path d="M447,332.9c20.9,0,41.7,3.2,61.8,9.5c19.9,6.2,38.6,15.4,55.8,27.1c35.6,24.5,62.2,58.9,77,99.6
					c9.6,26.3,13.7,53.6,12.3,81.3c-1.4,26.7-7.8,52.6-19.2,77s-27.1,46-46.7,64.2c-20.3,18.9-43.9,33.3-70.1,42.8
					c-22.9,8.3-46.7,12.5-70.8,12.5c-20.9,0-41.7-3.2-61.8-9.5c-19.9-6.2-38.6-15.4-55.8-27.1c-35.6-24.5-62.2-58.9-77-99.6
					c-9.6-26.3-13.7-53.6-12.3-81.3c1.4-26.7,7.8-52.6,19.2-77s27.1-46,46.7-64.2c20.3-18.9,43.9-33.3,70.1-42.8
					C399.1,337.2,422.9,332.9,447,332.9L447,332.9 M447,319.9c-25,0-50.4,4.3-75.2,13.3c-114.2,41.6-173,167.8-131.5,282
					C272.8,704.5,357.2,760,447,760c25,0,50.4-4.3,75.2-13.3c114.2-41.6,173-167.8,131.5-282C621.2,375.4,536.8,319.9,447,319.9
					L447,319.9z"/>
			</g>
			<g>
				<path d="M236,515.7c3.8,13.5,174.7,37.5,212.7,29c5.3-1.2,0.9-13.5-4.4-12.2c-52.8,12.8-128.1,1.9-202.3-41.3
					C237.2,488.4,234.5,510.4,236,515.7z"/>
			</g>
		</g>
		<g>
			<g>
				<path d="M446.9,333c61.4,0,119.2,27,158.7,73.9c18,21.4,31.2,45.7,39.3,72.2c7.9,25.6,10.7,52.1,8.3,78.9
					c-2.3,26.8-9.7,52.5-21.9,76.3c-12.6,24.7-29.9,46.3-51.3,64.2c-19,15.9-40.3,28.2-63.4,36.4c-22.3,8-45.7,12-69.5,12
					c-61.4,0-119.3-27-158.7-73.9c-18-21.4-31.2-45.7-39.3-72.2c-7.9-25.6-10.7-52.1-8.3-78.9c2.3-26.8,9.7-52.5,21.9-76.3
					c12.6-24.7,29.9-46.3,51.3-64.2c19-15.9,40.3-28.2,63.4-36.4C399.7,337,423.1,333,446.9,333L446.9,333 M446.9,320
					c-49.9,0-100.1,16.9-141.3,51.5c-93.1,78.1-105.2,216.9-27.1,309.9C322,733.3,384.3,760,447.1,760c49.9,0,100.1-16.9,141.3-51.5
					c93.1-78.1,105.2-216.9,27.1-309.9C572,346.7,509.7,320,446.9,320L446.9,320z"/>
			</g>
			<g>
				<path d="M240.4,589.4c8.2,11.4,177-24.5,209.8-45.5c4.6-2.9-3.8-13-8.4-10c-45.2,30.1-119.7,45.6-204.2,30.4
					C232.2,563.3,237.2,584.9,240.4,589.4z"/>
			</g>
		</g>
		<g>
			<g>
				<path d="M447.2,333c36.1,0,71.8,9.6,103.3,27.8c24.2,14,44.9,32.3,61.6,54.4c16.1,21.4,27.8,45.3,34.8,71.3
					c7,26,8.8,52.6,5.5,79.2c-3.4,27.5-12.2,53.7-26.2,77.9c-18.5,32.1-45.2,58.6-77.3,76.7c-31.1,17.6-66.5,26.9-102.2,26.9
					c-36.1,0-71.8-9.6-103.3-27.8c-24.2-14-44.9-32.3-61.6-54.4c-16.1-21.4-27.8-45.3-34.8-71.3s-8.8-52.6-5.5-79.2
					c3.4-27.5,12.2-53.7,26.2-77.9c18.5-32.1,45.2-58.6,77.3-76.7C376.1,342.3,411.5,333,447.2,333L447.2,333 M447.2,320
					c-76,0-150,39.5-190.7,110c-60.8,105.2-24.7,239.8,80.5,300.5c34.6,20,72.5,29.5,109.8,29.5c76,0,150-39.5,190.7-110
					c60.8-105.2,24.7-239.8-80.5-300.5C522.4,329.5,484.5,320,447.2,320L447.2,320z"/>
			</g>
			<g>
				<path d="M269.7,657c11.6,7.9,157.9-83.6,181.6-114.5c3.3-4.3-8-10.9-11.3-6.5c-32.2,43.8-96.9,83.8-181.5,98.4
					C253.2,635.3,265.2,654,269.7,657z"/>
			</g>
		</g>
		<g>
			<g>
				<path d="M446.8,320v13c12,0,24.2,1.1,36.2,3.2c27.5,4.9,53.3,14.9,76.5,30c22.5,14.5,41.7,33.1,57.1,55.1
					c15.4,22,26.3,46.4,32.3,72.5c6.2,27,6.9,54.6,2,82.2c-4.3,24.6-12.9,47.8-25.4,69.1c-12.1,20.6-27.6,38.8-46.1,54.1
					C542.2,730,495.3,747,447.3,747c-12,0-24.2-1.1-36.2-3.2c-27.5-4.9-53.3-14.9-76.5-30c-22.5-14.5-41.7-33.1-57.1-55.1
					s-26.3-46.4-32.3-72.5c-6.2-27-6.9-54.6-2-82.2c4.3-24.6,12.9-47.8,25.4-69.1c12.1-20.6,27.6-38.8,46.1-54.1
					c37.1-30.8,84-47.8,132-47.8L446.8,320 M446.7,320c-104.7,0-197.6,75.1-216.4,181.8c-21.1,119.7,58.8,233.8,178.5,254.9
					c12.9,2.3,25.8,3.4,38.5,3.4c104.7,0,197.6-75.1,216.4-181.8c21.1-119.7-58.8-233.8-178.5-254.9
					C472.3,321.1,459.4,320,446.7,320L446.7,320z"/>
			</g>
			<g>
				<path d="M320.5,710.6C334.1,714,440.3,578.1,452,540.9c1.6-5.2-11.3-7.5-12.8-2.3c-15.3,52.1-62.4,111.9-136.9,154.6
					C297.5,695.9,315.1,709.3,320.5,710.6z"/>
			</g>
		</g>
		<g>
			<g>
				<path d="M447.3,333c48,0,94.9,17,132.1,47.9c18.4,15.3,33.9,33.5,46.1,54.1c12.5,21.3,21.1,44.5,25.4,69.1
					c4.9,27.5,4.2,55.2-2,82.2c-6,26.1-16.8,50.5-32.3,72.5c-15.4,22-34.6,40.6-57.1,55.1c-23.3,15.1-49,25.2-76.5,30
					c-12,2.1-24.2,3.2-36.2,3.2c-48,0-95-17-132.1-47.9c-18.4-15.3-33.9-33.5-46.1-54.1c-12.5-21.3-21.1-44.5-25.4-69.1
					c-4.9-27.5-4.2-55.2,2-82.2c6-26.1,16.8-50.5,32.3-72.5c15.4-22,34.6-40.6,57.1-55.1c23.3-15.1,49-25.2,76.5-30
					C423,334,435.2,333,447.3,333L447.3,333 M447.3,320c-12.7,0-25.5,1.1-38.5,3.4c-119.7,21.1-199.6,135.2-178.5,254.9
					C249.2,684.9,342,760,446.7,760c12.7,0,25.5-1.1,38.5-3.4c119.7-21.1,199.6-135.2,178.5-254.9C644.8,395.1,552,320,447.3,320
					L447.3,320z"/>
			</g>
			<g>
				<path d="M386.4,743.6c14-1.4,67.3-165.5,65.5-204.5c-0.3-5.4-13.2-3.2-12.8,2.3c3.5,54.2-20.4,126.5-75.8,192.1
					C359.8,737.6,381,744.2,386.4,743.6z"/>
			</g>
		</g>
		<g>
			<g>
				<path d="M446.8,333c35.7,0,71.1,9.3,102.2,26.9c32,18.1,58.8,44.6,77.3,76.7c14,24.2,22.8,50.4,26.2,77.9
					c3.3,26.6,1.4,53.2-5.5,79.2c-7,26-18.7,50-34.8,71.3c-16.7,22.1-37.4,40.4-61.6,54.4c-31.6,18-67.3,27.6-103.4,27.6
					c-35.7,0-71.1-9.3-102.2-26.9c-32-18.1-58.8-44.6-77.3-76.7c-14-24.2-22.8-50.4-26.2-77.9c-3.3-26.6-1.4-53.2,5.5-79.2
					c7-26,18.7-50,34.8-71.3c16.7-22.1,37.4-40.4,61.6-54.4C375,342.6,410.7,333,446.8,333L446.8,333 M446.8,320
					c-37.3,0-75.2,9.5-109.8,29.5C231.8,410.2,195.7,544.8,256.5,650c40.8,70.6,114.7,110,190.7,110c37.3,0,75.2-9.5,109.8-29.5
					c105.2-60.8,141.3-195.3,80.5-300.5C596.8,359.4,522.8,320,446.8,320L446.8,320z"/>
			</g>
			<g>
				<path d="M459.7,752c12.6-6.1,6.6-178.6-8.4-214.5c-2.1-5-13.4,1.5-11.3,6.5c21.8,49.8,24.1,125.8-5.5,206.4
					C432.7,755.5,454.8,754.4,459.7,752z"/>
			</g>
		</g>
		<g>
			<g>
				<path d="M447.1,333c23.8,0,47.2,4,69.5,12c23.1,8.2,44.4,20.5,63.4,36.4c21.4,18,38.7,39.6,51.3,64.2
					c12.2,23.8,19.5,49.5,21.9,76.3c2.3,26.8-0.5,53.3-8.3,78.9c-8.1,26.5-21.4,50.8-39.3,72.2c-39.4,47-97.3,73.9-158.7,73.9
					c-23.8,0-47.2-4-69.5-12c-23.1-8.2-44.4-20.5-63.4-36.4c-21.4-18-38.7-39.6-51.3-64.2c-12.2-23.8-19.5-49.5-21.9-76.3
					c-2.3-26.8,0.5-53.3,8.3-78.9c8.1-26.5,21.4-50.8,39.3-72.2C327.9,360,385.7,333,447.1,333L447.1,333 M447.1,320
					c-62.8,0-125.1,26.7-168.6,78.6c-78.1,93.1-66,231.8,27.1,309.9C346.8,743.1,397,760,446.9,760c62.8,0,125.1-26.7,168.6-78.6
					c78.1-93.1,66-231.8-27.1-309.9C547.2,336.9,497,320,447.1,320L447.1,320z"/>
			</g>
			<g>
				<path d="M531.5,734.9c9.8-10.1-54.9-170.1-81.3-198.7c-3.7-4-12.1,6-8.4,10c37.5,39.3,65.7,110,65.4,195.9
					C507.2,747.4,527.7,738.8,531.5,734.9z"/>
			</g>
		</g>
		<g>
			<g>
				<path d="M447,319.9v13c24.1,0,47.9,4.2,70.8,12.5c26.3,9.6,49.9,24,70.1,42.8c19.6,18.2,35.3,39.8,46.7,64.2s17.8,50.3,19.2,77
					c1.4,27.7-2.7,55-12.3,81.3c-14.8,40.7-41.5,75.2-77,99.6c-17.1,11.8-35.9,20.9-55.8,27.1c-20.1,6.3-40.8,9.5-61.8,9.5
					c-24.1,0-47.9-4.2-70.8-12.5c-26.3-9.6-49.9-24-70.1-42.8c-19.6-18.2-35.3-39.8-46.7-64.2c-11.4-24.4-17.8-50.3-19.2-77
					c-1.4-27.7,2.7-55,12.3-81.3c14.8-40.7,41.5-75.2,77-99.6c17.1-11.8,35.9-20.9,55.8-27.1c20.1-6.3,40.8-9.5,61.8-9.5V319.9
					 M447,319.9c-89.9,0-174.2,55.5-206.7,144.8c-41.6,114.2,17.3,240.4,131.5,282c24.8,9,50.2,13.3,75.2,13.3
					c89.9,0,174.2-55.5,206.7-144.8c41.6-114.2-17.3-240.4-131.5-282C497.4,324.2,472,319.9,447,319.9L447,319.9z"/>
			</g>
			<g>
				<path d="M593,694.3c5.7-12.8-109.7-141-144.3-159c-4.8-2.5-9.3,9.8-4.4,12.2c48.7,24.1,99.3,80.9,128.4,161.7
					C574.6,714.3,590.8,699.3,593,694.3z"/>
			</g>
		</g>
		<g>
			<g>
				<path d="M447,333c28,0,55.1,5.5,80.6,16.3c24.6,10.4,46.8,25.4,65.8,44.4s33.9,41.2,44.4,65.8C648.5,484.9,654,512,654,540
					s-5.5,55.1-16.3,80.6c-10.4,24.6-25.4,46.8-44.4,65.8s-41.2,33.9-65.8,44.4C502.1,741.5,475,747,447,747s-55.1-5.5-80.6-16.3
					c-24.6-10.4-46.8-25.4-65.8-44.4c-19-19-33.9-41.2-44.4-65.8C245.5,595.1,240,568,240,540s5.5-55.1,16.3-80.6
					c10.4-24.6,25.4-46.8,44.4-65.8c19-19,41.2-33.9,65.8-44.4C391.9,338.5,419,333,447,333 M447,320c-121.5,0-220,98.5-220,220
					s98.5,220,220,220s220-98.5,220-220S568.5,320,447,320L447,320z"/>
			</g>
			<g>
				<path d="M637,635c1-14-151.3-95-190-100c-5.4-0.7-5.4,12.4,0,13c54,6,121,42,176,108C626.5,660.2,636.6,640.5,637,635z"/>
			</g>
		</g>
		<g>
			<g>
				<path d="M447,332.9c20.9,0,41.7,3.2,61.8,9.5c19.9,6.2,38.6,15.4,55.8,27.1c35.6,24.5,62.2,58.9,77,99.6
					c9.6,26.3,13.7,53.6,12.3,81.3c-1.4,26.7-7.8,52.6-19.2,77s-27.1,46-46.7,64.2c-20.3,18.9-43.9,33.3-70.1,42.8
					c-22.9,8.3-46.7,12.5-70.8,12.5c-20.9,0-41.7-3.2-61.8-9.5c-19.9-6.2-38.6-15.4-55.8-27.1c-35.6-24.5-62.2-58.9-77-99.6
					c-9.6-26.3-13.7-53.6-12.3-81.3c1.4-26.7,7.8-52.6,19.2-77s27.1-46,46.7-64.2c20.3-18.9,43.9-33.3,70.1-42.8
					C399.1,337.2,422.9,332.9,447,332.9L447,332.9 M447,319.9c-25,0-50.4,4.3-75.2,13.3c-114.2,41.6-173,167.8-131.5,282
					C272.8,704.5,357.2,760,447,760c25,0,50.4-4.3,75.2-13.3c114.2-41.6,173-167.8,131.5-282C621.2,375.4,536.8,319.9,447,319.9
					L447,319.9z"/>
			</g>
			<g>
				<path d="M658,564.3c-3.8-13.5-174.7-37.5-212.7-29c-5.3,1.2-0.9,13.5,4.4,12.2c52.8-12.8,128.1-1.9,202.3,41.3
					C656.8,591.6,659.5,569.6,658,564.3z"/>
			</g>
		</g>
		<g>
			<g>
				<path d="M446.9,333c61.4,0,119.2,27,158.7,73.9c18,21.4,31.2,45.7,39.3,72.2c7.9,25.6,10.7,52.1,8.3,78.9
					c-2.3,26.8-9.7,52.5-21.9,76.3c-12.6,24.7-29.9,46.3-51.3,64.2c-19,15.9-40.3,28.2-63.4,36.4c-22.3,8-45.7,12-69.5,12
					c-61.4,0-119.3-27-158.7-73.9c-18-21.4-31.2-45.7-39.3-72.2c-7.9-25.6-10.7-52.1-8.3-78.9c2.3-26.8,9.7-52.5,21.9-76.3
					c12.6-24.7,29.9-46.3,51.3-64.2c19-15.9,40.3-28.2,63.4-36.4C399.7,337,423.1,333,446.9,333L446.9,333 M446.9,320
					c-49.9,0-100.1,16.9-141.3,51.5c-93.1,78.1-105.2,216.9-27.1,309.9C322,733.3,384.3,760,447.1,760c49.9,0,100.1-16.9,141.3-51.5
					c93.1-78.1,105.2-216.9,27.1-309.9C572,346.7,509.7,320,446.9,320L446.9,320z"/>
			</g>
			<g>
				<path d="M653.6,490.6c-8.2-11.4-177,24.5-209.8,45.5c-4.6,2.9,3.8,13,8.4,10c45.2-30.1,119.7-45.6,204.2-30.4
					C661.8,516.7,656.8,495.1,653.6,490.6z"/>
			</g>
		</g>
		<g>
			<g>
				<path d="M447.2,333c36.1,0,71.8,9.6,103.3,27.8c24.2,14,44.9,32.3,61.6,54.4c16.1,21.4,27.8,45.3,34.8,71.3
					c7,26,8.8,52.6,5.5,79.2c-3.4,27.5-12.2,53.7-26.2,77.9c-18.5,32.1-45.2,58.6-77.3,76.7c-31.1,17.6-66.5,26.9-102.2,26.9
					c-36.1,0-71.8-9.6-103.3-27.8c-24.2-14-44.9-32.3-61.6-54.4c-16.1-21.4-27.8-45.3-34.8-71.3s-8.8-52.6-5.5-79.2
					c3.4-27.5,12.2-53.7,26.2-77.9c18.5-32.1,45.2-58.6,77.3-76.7C376.1,342.3,411.5,333,447.2,333L447.2,333 M447.2,320
					c-76,0-150,39.5-190.7,110c-60.8,105.2-24.7,239.8,80.5,300.5c34.6,20,72.5,29.5,109.8,29.5c76,0,150-39.5,190.7-110
					c60.8-105.2,24.7-239.8-80.5-300.5C522.4,329.5,484.5,320,447.2,320L447.2,320z"/>
			</g>
			<g>
				<path d="M624.3,423c-11.6-7.9-157.9,83.6-181.6,114.5c-3.3,4.3,8,10.9,11.3,6.5c32.2-43.8,96.9-83.8,181.5-98.4
					C640.8,444.7,628.8,426,624.3,423z"/>
			</g>
		</g>
		<g>
			<g>
				<path d="M446.8,320v13c12,0,24.2,1.1,36.2,3.2c27.5,4.9,53.3,14.9,76.5,30c22.5,14.5,41.7,33.1,57.1,55.1
					c15.4,22,26.3,46.4,32.3,72.5c6.2,27,6.9,54.6,2,82.2c-4.3,24.6-12.9,47.8-25.4,69.1c-12.1,20.6-27.6,38.8-46.1,54.1
					C542.2,730,495.3,747,447.3,747c-12,0-24.2-1.1-36.2-3.2c-27.5-4.9-53.3-14.9-76.5-30c-22.5-14.5-41.7-33.1-57.1-55.1
					s-26.3-46.4-32.3-72.5c-6.2-27-6.9-54.6-2-82.2c4.3-24.6,12.9-47.8,25.4-69.1c12.1-20.6,27.6-38.8,46.1-54.1
					c37.1-30.8,84-47.8,132-47.8L446.8,320 M446.7,320c-104.7,0-197.6,75.1-216.4,181.8c-21.1,119.7,58.8,233.8,178.5,254.9
					c12.9,2.3,25.8,3.4,38.5,3.4c104.7,0,197.6-75.1,216.4-181.8c21.1-119.7-58.8-233.8-178.5-254.9
					C472.3,321.1,459.4,320,446.7,320L446.7,320z"/>
			</g>
			<g>
				<path d="M573.5,369.4C559.9,366,453.7,501.9,442,539.1c-1.6,5.2,11.3,7.5,12.8,2.3c15.3-52.1,62.4-111.9,136.9-154.6
					C596.5,384.1,578.9,370.7,573.5,369.4z"/>
			</g>
		</g>
		<g>
			<g>
				<path d="M447.3,333c48,0,94.9,17,132.1,47.9c18.4,15.3,33.9,33.5,46.1,54.1c12.5,21.3,21.1,44.5,25.4,69.1
					c4.9,27.5,4.2,55.2-2,82.2c-6,26.1-16.8,50.5-32.3,72.5c-15.4,22-34.6,40.6-57.1,55.1c-23.3,15.1-49,25.2-76.5,30
					c-12,2.1-24.2,3.2-36.2,3.2c-48,0-95-17-132.1-47.9c-18.4-15.3-33.9-33.5-46.1-54.1c-12.5-21.3-21.1-44.5-25.4-69.1
					c-4.9-27.5-4.2-55.2,2-82.2c6-26.1,16.8-50.5,32.3-72.5c15.4-22,34.6-40.6,57.1-55.1c23.3-15.1,49-25.2,76.5-30
					C423,334,435.2,333,447.3,333L447.3,333 M447.3,320c-12.7,0-25.5,1.1-38.5,3.4c-119.7,21.1-199.6,135.2-178.5,254.9
					C249.2,684.9,342,760,446.7,760c12.7,0,25.5-1.1,38.5-3.4c119.7-21.1,199.6-135.2,178.5-254.9C644.8,395.1,552,320,447.3,320
					L447.3,320z"/>
			</g>
			<g>
				<path d="M507.6,336.4c-14,1.4-67.3,165.5-65.5,204.5c0.3,5.4,13.2,3.2,12.8-2.3c-3.5-54.2,20.4-126.5,75.8-192.1
					C534.2,342.4,513,335.8,507.6,336.4z"/>
			</g>
		</g>
		<g>
			<g>
				<path d="M446.8,333c35.7,0,71.1,9.3,102.2,26.9c32,18.1,58.8,44.6,77.3,76.7c14,24.2,22.8,50.4,26.2,77.9
					c3.3,26.6,1.4,53.2-5.5,79.2c-7,26-18.7,50-34.8,71.3c-16.7,22.1-37.4,40.4-61.6,54.4c-31.6,18-67.3,27.6-103.4,27.6
					c-35.7,0-71.1-9.3-102.2-26.9c-32-18.1-58.8-44.6-77.3-76.7c-14-24.2-22.8-50.4-26.2-77.9c-3.3-26.6-1.4-53.2,5.5-79.2
					c7-26,18.7-50,34.8-71.3c16.7-22.1,37.4-40.4,61.6-54.4C375,342.6,410.7,333,446.8,333L446.8,333 M446.8,320
					c-37.3,0-75.2,9.5-109.8,29.5C231.8,410.2,195.7,544.8,256.5,650c40.8,70.6,114.7,110,190.7,110c37.3,0,75.2-9.5,109.8-29.5
					c105.2-60.8,141.3-195.3,80.5-300.5C596.8,359.4,522.8,320,446.8,320L446.8,320z"/>
			</g>
			<g>
				<path d="M434.3,328c-12.6,6.1-6.6,178.6,8.4,214.5c2.1,5,13.4-1.5,11.3-6.5c-21.8-49.8-24.1-125.8,5.5-206.4
					C461.3,324.5,439.2,325.6,434.3,328z"/>
			</g>
		</g>
		<g>
			<g>
				<path d="M447.1,333c23.8,0,47.2,4,69.5,12c23.1,8.2,44.4,20.5,63.4,36.4c21.4,18,38.7,39.6,51.3,64.2
					c12.2,23.8,19.5,49.5,21.9,76.3c2.3,26.8-0.5,53.3-8.3,78.9c-8.1,26.5-21.4,50.8-39.3,72.2c-39.4,47-97.3,73.9-158.7,73.9
					c-23.8,0-47.2-4-69.5-12c-23.1-8.2-44.4-20.5-63.4-36.4c-21.4-18-38.7-39.6-51.3-64.2c-12.2-23.8-19.5-49.5-21.9-76.3
					c-2.3-26.8,0.5-53.3,8.3-78.9c8.1-26.5,21.4-50.8,39.3-72.2C327.9,360,385.7,333,447.1,333L447.1,333 M447.1,320
					c-62.8,0-125.1,26.7-168.6,78.6c-78.1,93.1-66,231.8,27.1,309.9C346.8,743.1,397,760,446.9,760c62.8,0,125.1-26.7,168.6-78.6
					c78.1-93.1,66-231.8-27.1-309.9C547.2,336.9,497,320,447.1,320L447.1,320z"/>
			</g>
			<g>
				<path d="M362.5,345.1c-9.8,10.1,54.9,170.1,81.3,198.7c3.7,4,12.1-6,8.4-10c-37.5-39.3-65.7-110-65.4-195.9
					C386.8,332.6,366.3,341.2,362.5,345.1z"/>
			</g>
		</g>
		<g>
			<g>
				<path d="M447,319.9v13c24.1,0,47.9,4.2,70.8,12.5c26.3,9.6,49.9,24,70.1,42.8c19.6,18.2,35.3,39.8,46.7,64.2s17.8,50.3,19.2,77
					c1.4,27.7-2.7,55-12.3,81.3c-14.8,40.7-41.5,75.2-77,99.6c-17.1,11.8-35.9,20.9-55.8,27.1c-20.1,6.3-40.8,9.5-61.8,9.5
					c-24.1,0-47.9-4.2-70.8-12.5c-26.3-9.6-49.9-24-70.1-42.8c-19.6-18.2-35.3-39.8-46.7-64.2c-11.4-24.4-17.8-50.3-19.2-77
					c-1.4-27.7,2.7-55,12.3-81.3c14.8-40.7,41.5-75.2,77-99.6c17.1-11.8,35.9-20.9,55.8-27.1c20.1-6.3,40.8-9.5,61.8-9.5V319.9
					 M447,319.9c-89.9,0-174.2,55.5-206.7,144.8c-41.6,114.2,17.3,240.4,131.5,282c24.8,9,50.2,13.3,75.2,13.3
					c89.9,0,174.2-55.5,206.7-144.8c41.6-114.2-17.3-240.4-131.5-282C497.4,324.2,472,319.9,447,319.9L447,319.9z"/>
			</g>
			<g>
				<path d="M301,385.7c-5.7,12.8,109.7,141,144.3,159c4.8,2.5,9.3-9.8,4.4-12.2c-48.7-24.1-99.3-80.9-128.4-161.7
					C319.4,365.7,303.2,380.7,301,385.7z"/>
			</g>
		</g>
	</g>
</g>
<g id="Layer_4">
	<g>
		<g>
			<g>
				<path d="M884,697c31.4,0,57,25.6,57,57s-25.6,57-57,57s-57-25.6-57-57S852.6,697,884,697 M884,684c-38.6,0-70,31.3-70,70
					s31.3,70,70,70s70-31.3,70-70S922.6,684,884,684L884,684z"/>
			</g>
			<g>
				<path d="M823.6,723.8c-0.3,4.5,48.1,30.2,60.4,31.8c1.7,0.2,1.7-3.9,0-4.1c-17.2-1.9-38.5-13.4-56-34.4
					C826.9,715.8,823.7,722,823.6,723.8z"/>
			</g>
		</g>
		<g>
			<g>
				<path d="M884,684v13c23.9,0,45.4,15.1,53.5,37.5c5.2,14.3,4.5,29.8-1.9,43.6s-17.9,24.3-32.2,29.5c-6.3,2.3-12.9,3.5-19.5,3.5
					c-23.9,0-45.4-15.1-53.5-37.5c-5.2-14.3-4.5-29.8,1.9-43.6s17.9-24.3,32.2-29.5c6.3-2.3,12.9-3.5,19.5-3.5V684 M884,684
					c-7.9,0-16,1.4-23.9,4.2c-36.3,13.2-55,53.4-41.8,89.7c10.3,28.4,37.2,46.1,65.8,46.1c7.9,0,16-1.4,23.9-4.2
					c36.3-13.2,55-53.4,41.8-89.7C939.4,701.6,912.6,684,884,684L884,684z"/>
			</g>
			<g>
				<path d="M816.9,746.3c1.2,4.3,55.6,11.9,67.7,9.2c1.7-0.4,0.3-4.3-1.4-3.9c-16.8,4.1-40.7,0.6-64.4-13.1
					C817.3,737.6,816.4,744.6,816.9,746.3z"/>
			</g>
		</g>
		<g>
			<g>
				<path d="M884,697c16.9,0,32.8,7.4,43.7,20.4c20.2,24.1,17,60.1-7,80.3c-10.2,8.6-23.2,13.3-36.6,13.3
					c-16.9,0-32.8-7.4-43.7-20.4c-20.2-24.1-17-60.1,7-80.3C857.6,701.8,870.6,697,884,697L884,697 M884,684
					c-15.9,0-31.8,5.4-44.9,16.4c-29.6,24.8-33.5,69-8.6,98.6c13.8,16.5,33.7,25,53.6,25c15.9,0,31.8-5.4,44.9-16.4
					c29.6-24.8,33.5-69,8.6-98.6C923.8,692.5,903.9,684,884,684L884,684z"/>
			</g>
			<g>
				<path d="M818.3,769.7c2.6,3.6,56.3-7.8,66.7-14.5c1.5-0.9-1.2-4.1-2.7-3.2c-14.4,9.6-38.1,14.5-65,9.7
					C815.7,761.4,817.3,768.3,818.3,769.7z"/>
			</g>
		</g>
		<g>
			<g>
				<path d="M884.1,697c9.9,0,19.8,2.6,28.4,7.6c13.2,7.6,22.6,19.9,26.5,34.6c3.9,14.7,1.9,30.1-5.7,43.2
					c-10.2,17.6-29.1,28.5-49.4,28.5c-9.9,0-19.8-2.6-28.4-7.6c-13.2-7.6-22.6-19.9-26.5-34.6c-3.9-14.7-1.9-30.1,5.7-43.2
					C844.8,707.9,863.7,697,884.1,697L884.1,697 M884.1,684c-24.2,0-47.7,12.6-60.7,35c-19.3,33.5-7.9,76.3,25.6,95.6
					c11,6.4,23.1,9.4,34.9,9.4c24.2,0,47.7-12.6,60.7-35c19.3-33.5,7.9-76.3-25.6-95.6C908,687,895.9,684,884.1,684L884.1,684z"/>
			</g>
			<g>
				<path d="M940.4,716.8c-3.7-2.5-50.2,26.6-57.8,36.4c-1.1,1.4,2.6,3.5,3.6,2.1c10.2-13.9,30.8-26.7,57.7-31.3
					C945.7,723.7,941.8,717.7,940.4,716.8z"/>
			</g>
		</g>
		<g>
			<g>
				<path d="M883.9,697c3.3,0,6.7,0.3,10,0.9c15,2.6,28.1,11,36.8,23.4c8.7,12.5,12.1,27.6,9.4,42.6c-4.8,27.3-28.4,47.1-56,47.1
					c-3.3,0-6.7-0.3-10-0.9c-15-2.6-28.1-11-36.8-23.4s-12.1-27.6-9.4-42.6C832.7,716.8,856.3,697,883.9,697L883.9,697 M883.9,684
					c-33.3,0-62.8,23.9-68.8,57.8c-6.7,38.1,18.7,74.4,56.8,81.1c4.1,0.7,8.2,1.1,12.2,1.1c33.3,0,62.8-23.9,68.8-57.8
					c6.7-38.1-18.7-74.4-56.8-81.1C892,684.4,888,684,883.9,684L883.9,684z"/>
			</g>
			<g>
				<path d="M924.3,699.7c-4.3-1.1-38.1,42.2-41.8,54c-0.5,1.7,3.6,2.4,4.1,0.7c4.9-16.6,19.8-35.6,43.6-49.2
					C931.6,704.4,925.9,700.2,924.3,699.7z"/>
			</g>
		</g>
		<g>
			<g>
				<path d="M884.1,684v13c27.7,0,51.2,19.8,56,47.1c2.6,15-0.7,30.1-9.4,42.6s-21.8,20.8-36.8,23.4c-3.3,0.6-6.7,0.9-10,0.9
					c-27.7,0-51.2-19.8-56-47.1c-2.6-15,0.7-30.1,9.4-42.6s21.8-20.8,36.8-23.4c3.3-0.6,6.7-0.9,10-0.9V684 M884.1,684
					c-4,0-8.1,0.4-12.2,1.1c-38.1,6.7-63.5,43-56.8,81.1c6,34,35.5,57.8,68.8,57.8c4,0,8.1-0.4,12.2-1.1c38.1-6.7,63.5-43,56.8-81.1
					C946.9,707.9,917.4,684,884.1,684L884.1,684z"/>
			</g>
			<g>
				<path d="M903.3,689.2c-4.4,0.5-21.4,52.7-20.8,65c0.1,1.7,4.2,1,4.1-0.7c-1.1-17.2,6.5-40.2,24.1-61.1
					C911.7,691.1,905,689.1,903.3,689.2z"/>
			</g>
		</g>
		<g>
			<g>
				<path d="M883.9,697c20.3,0,39.3,10.9,49.4,28.5c7.6,13.2,9.6,28.5,5.7,43.2c-3.9,14.7-13.4,27-26.5,34.6
					c-8.7,5-18.5,7.6-28.4,7.6c-20.3,0-39.3-10.9-49.4-28.5c-7.6-13.2-9.6-28.5-5.7-43.2c3.9-14.7,13.4-27,26.5-34.6
					C864.2,699.7,874,697,883.9,697L883.9,697 M883.9,684c-11.9,0-23.9,3-34.9,9.4c-33.5,19.3-44.9,62.1-25.6,95.6
					c13,22.5,36.5,35,60.7,35c11.9,0,23.9-3,34.9-9.4c33.5-19.3,44.9-62.1,25.6-95.6C931.6,696.6,908.1,684,883.9,684L883.9,684z"/>
			</g>
			<g>
				<path d="M880,686.5c-4,2-2.1,56.8,2.7,68.2c0.7,1.6,4.3-0.5,3.6-2.1c-6.9-15.8-7.7-40,1.8-65.7
					C888.6,685.4,881.5,685.8,880,686.5z"/>
			</g>
		</g>
		<g>
			<g>
				<path d="M884,697c13.3,0,26.3,4.7,36.6,13.3c24.1,20.2,27.2,56.2,7,80.3c-10.8,13-26.7,20.4-43.6,20.4
					c-13.3,0-26.3-4.7-36.6-13.3c-24.1-20.2-27.2-56.2-7-80.3C851.2,704.4,867.1,697,884,697L884,697 M884,684
					c-20,0-39.8,8.5-53.6,25c-24.8,29.6-21,73.7,8.6,98.6c13.1,11,29.1,16.4,44.9,16.4c20,0,39.8-8.5,53.6-25
					c24.8-29.6,21-73.7-8.6-98.6C915.9,689.4,899.9,684,884,684L884,684z"/>
			</g>
			<g>
				<path d="M857.1,692c-3.1,3.2,17.4,54.1,25.9,63.2c1.2,1.3,3.9-1.9,2.7-3.2c-11.9-12.5-20.9-35-20.8-62.3
					C864.8,688,858.3,690.8,857.1,692z"/>
			</g>
		</g>
		<g>
			<g>
				<path d="M884,684v13l0,0c6.6,0,13.2,1.2,19.5,3.5c14.3,5.2,25.7,15.7,32.2,29.5c6.4,13.8,7.1,29.3,1.9,43.6
					c-8.2,22.4-29.7,37.5-53.5,37.5c-6.6,0-13.2-1.2-19.5-3.5c-14.3-5.2-25.7-15.7-32.2-29.5c-6.4-13.8-7.1-29.3-1.9-43.6
					c8.2-22.4,29.7-37.5,53.6-37.5L884,684 M884,684c-28.6,0-55.4,17.6-65.8,46.1c-13.2,36.3,5.5,76.5,41.8,89.7
					c7.9,2.9,16,4.2,23.9,4.2c28.6,0,55.4-17.6,65.8-46.1c13.2-36.3-5.5-76.5-41.8-89.7C900,685.4,892,684,884,684L884,684z"/>
			</g>
			<g>
				<path d="M837.5,704.9c-1.8,4.1,34.9,44.9,45.9,50.6c1.5,0.8,3-3.1,1.4-3.9c-15.5-7.7-31.6-25.7-40.9-51.4
					C843.4,698.5,838.3,703.3,837.5,704.9z"/>
			</g>
		</g>
	</g>
</g>
<g id="charkh2">
	<g>
		<path d="M844.4,504.6c-0.5-0.2-0.9-0.3-1.4-0.5c-0.8-0.3-1.6-0.7-2.4-1c-1.3-0.6-2.5-1.3-3.7-2.1c-1.2-0.8-2.4-1.6-3.4-2.5
			c-0.2-0.2-0.4-0.4-0.7-0.6c-0.3-0.3-0.6-0.6-1-0.9c-0.3-0.3-0.6-0.6-0.9-0.9c-0.3-0.3-0.6-0.6-0.9-0.9c-0.3-0.3-0.6-0.6-0.9-1
			c-0.2-0.2-0.4-0.4-0.6-0.7c-0.9-1.1-1.8-2.3-2.5-3.5c-0.8-1.2-1.5-2.5-2.1-3.7c-0.4-0.7-0.7-1.5-1-2.3c2.2,2.5,5.4,4.1,9,4.1h0.9
			c2.5,0,4.7-1.2,6-3.2s1.4-4.3,0.3-6.7v-14.6c1.3-2.9,0.5-5.2-0.2-6.3c-0.6-1-2.4-3.4-6.1-3.4c-4.3,0-8.1,2.1-10.5,5.4
			c0.2-0.5,0.3-0.9,0.5-1.4c0.3-0.8,0.7-1.6,1-2.4c0.6-1.3,1.3-2.5,2.1-3.7s1.6-2.4,2.5-3.4c0.2-0.2,0.4-0.4,0.6-0.7
			c0.3-0.3,0.6-0.6,0.9-1c0.4-0.4,0.8-0.8,1.2-1.2c0.2-0.2,0.4-0.4,0.6-0.6c0.3-0.3,0.6-0.6,1-0.9c0.2-0.2,0.4-0.4,0.7-0.6
			c1.1-0.9,2.3-1.8,3.5-2.5c1.2-0.8,2.5-1.5,3.7-2.1c0.7-0.4,1.5-0.7,2.3-1c-2.5,2.2-4.1,5.4-4.1,9v0.9c0,3.9,3,7,6.8,7
			c1.4,0,2.4-0.4,3.1-0.7h14.6c0.7,0.3,1.7,0.7,3,0.7c3.3,0,6.7-2.6,6.7-7c0-4.3-2.1-8.1-5.4-10.5c0.5,0.2,0.9,0.3,1.4,0.5
			c0.8,0.3,1.6,0.7,2.4,1c1.3,0.6,2.5,1.3,3.7,2.1c1.2,0.8,2.4,1.6,3.4,2.5c0.2,0.2,0.4,0.4,0.7,0.6c0.3,0.3,0.6,0.6,1,0.9
			c0.3,0.3,0.5,0.5,0.8,0.8l0.1,0.1l0.1,0.1c0.3,0.3,0.5,0.5,0.8,0.8s0.6,0.6,0.9,1c0.2,0.2,0.4,0.4,0.6,0.7
			c0.9,1.1,1.8,2.3,2.5,3.5c0.8,1.2,1.5,2.5,2.1,3.7c0.4,0.7,0.7,1.5,1,2.3c-2.2-2.5-5.4-4.1-9-4.1h-0.9c-2.5,0-4.7,1.2-6,3.2
			s-1.4,4.3-0.3,6.7v14.6c-1.3,2.9-0.5,5.2,0.2,6.3c0.6,1,2.4,3.4,6.1,3.4c4.3,0,8.1-2.1,10.5-5.4c-0.2,0.5-0.3,0.9-0.5,1.4
			c-0.3,0.8-0.7,1.6-1,2.4c-0.6,1.3-1.3,2.5-2.1,3.7s-1.6,2.4-2.5,3.4c-0.2,0.2-0.4,0.4-0.6,0.7c-0.3,0.3-0.6,0.6-0.9,1
			c-0.2,0.2-0.4,0.4-0.6,0.6c-0.4,0.4-0.8,0.8-1.2,1.2c-0.3,0.3-0.6,0.6-1,0.9c-0.2,0.2-0.4,0.4-0.7,0.6c-1.1,0.9-2.3,1.8-3.5,2.5
			c-1.2,0.8-2.5,1.5-3.7,2.1c-0.7,0.4-1.5,0.7-2.3,1c2.5-2.2,4.1-5.4,4.1-9v-0.9c0-3.9-3-7-6.8-7c-1.4,0-2.4,0.4-3.1,0.7h-14.6
			c-0.7-0.3-1.7-0.7-3-0.7c-3.3,0-6.7,2.6-6.7,7C839,498.4,841.1,502.2,844.4,504.6z"/>
		<path d="M862,460.7c1,0.3,2.2,0.6,3.6,0.7c0.1,1.1,0.3,2.2,0.7,3.5v12.2c-0.4,1.2-0.6,2.4-0.7,3.5c-1.4,0.1-2.6,0.4-3.5,0.7H850
			c-1-0.3-2.2-0.6-3.6-0.7c-0.1-1.1-0.3-2.2-0.7-3.5v-12.2c0.4-1.2,0.6-2.4,0.7-3.5c1.4-0.1,2.6-0.4,3.5-0.7H862 M856,429
			c-2.5,0-5,0.2-7.4,0.7c-1,0.2-2.1,0.4-3.1,0.7c-1.7,0.4-3.3,1-4.9,1.6c-1,0.4-1.9,0.8-2.8,1.2c-1.5,0.7-3,1.6-4.4,2.5
			s-2.8,1.9-4.1,3c-0.3,0.2-0.5,0.4-0.8,0.7c-0.4,0.3-0.8,0.7-1.1,1c-0.2,0.2-0.5,0.4-0.7,0.7c-0.5,0.5-0.9,0.9-1.4,1.4
			c-0.3,0.4-0.7,0.8-1,1.1c-0.2,0.3-0.4,0.5-0.7,0.8c-1.1,1.3-2.1,2.7-3,4.1s-1.7,2.9-2.5,4.4c-0.4,0.9-0.9,1.9-1.2,2.8
			c-0.6,1.6-1.2,3.2-1.6,4.9c-0.3,1-0.5,2-0.7,3.1c-0.4,2.4-0.7,4.9-0.7,7.4s0.2,5,0.7,7.4c0.2,1,0.4,2.1,0.7,3.1
			c0.4,1.7,1,3.3,1.6,4.9c0.4,1,0.8,1.9,1.2,2.8c0.7,1.5,1.6,3,2.5,4.4s1.9,2.8,3,4.1c0.2,0.3,0.4,0.5,0.7,0.8
			c0.3,0.4,0.7,0.8,1,1.1c0.3,0.4,0.7,0.7,1,1.1c0.4,0.4,0.7,0.7,1.1,1c0.4,0.3,0.8,0.7,1.1,1c0.3,0.2,0.5,0.4,0.8,0.7
			c1.3,1.1,2.7,2.1,4.1,3c1.4,0.9,2.9,1.7,4.4,2.5c0.9,0.4,1.9,0.9,2.8,1.2c1.6,0.6,3.2,1.2,4.9,1.6c1,0.3,2,0.5,3.1,0.7
			c2.4,0.4,4.9,0.7,7.4,0.7s5-0.2,7.4-0.7c1-0.2,2.1-0.4,3.1-0.7c1.7-0.4,3.3-1,4.9-1.6c1-0.4,1.9-0.8,2.8-1.2
			c1.5-0.7,3-1.6,4.4-2.5s2.8-1.9,4.1-3c0.3-0.2,0.5-0.4,0.8-0.7c0.4-0.3,0.8-0.7,1.1-1c0.5-0.5,1-0.9,1.4-1.4
			c0.2-0.2,0.5-0.5,0.7-0.7c0.3-0.4,0.7-0.8,1-1.1c0.2-0.3,0.4-0.5,0.7-0.8c1.1-1.3,2.1-2.7,3-4.1s1.7-2.9,2.5-4.4
			c0.4-0.9,0.9-1.9,1.2-2.8c0.6-1.6,1.2-3.2,1.6-4.9c0.3-1,0.5-2,0.7-3.1c0.4-2.4,0.7-4.9,0.7-7.4s-0.2-5-0.7-7.4
			c-0.2-1-0.4-2.1-0.7-3.1c-0.4-1.7-1-3.3-1.6-4.9c-0.4-1-0.8-1.9-1.2-2.8c-0.7-1.5-1.6-3-2.5-4.4s-1.9-2.8-3-4.1
			c-0.2-0.3-0.4-0.5-0.7-0.8c-0.3-0.4-0.7-0.8-1-1.1c-0.3-0.4-0.7-0.7-1-1.1l0,0l0,0c-0.3-0.3-0.7-0.7-1.1-1c-0.4-0.3-0.8-0.7-1.1-1
			c-0.3-0.2-0.5-0.4-0.8-0.7c-1.3-1.1-2.7-2.1-4.1-3c-1.4-0.9-2.9-1.7-4.4-2.5c-0.9-0.4-1.9-0.9-2.8-1.2c-1.6-0.6-3.2-1.2-4.9-1.6
			c-1-0.3-2-0.5-3.1-0.7C861,429.2,858.5,429,856,429L856,429z M845.6,448.4c-0.2,0-0.3-0.1-0.3-0.5V447c0-3,2.4-5.4,5.4-5.4h9.6
			c3.5,0,6.3,2.8,6.3,6.3c0,0.4-0.1,0.5-0.2,0.5c-0.3,0-1-0.7-1.9-0.7h-16.7C846.9,447.7,846,448.4,845.6,448.4L845.6,448.4z
			 M879.1,481.5c-1.3,0,0.2-0.8,0.2-2.1v-16.7c0-1.3-1.5-2.5-0.2-2.5h0.9c3,0,5.4,2.4,5.4,5.4v9.6
			C885.4,478.7,882.6,481.5,879.1,481.5L879.1,481.5z M832,481.7c-3,0-5.4-2.4-5.4-5.4v-9.6c0-3.5,2.8-6.3,6.3-6.3
			c1.3,0-0.2,0.8-0.2,2.1v16.7c0,1.3,1.5,2.5,0.2,2.5L832,481.7L832,481.7z M847.6,494.3h16.7c0.9,0,1.7-0.7,2.2-0.7
			c0.2,0,0.3,0.1,0.3,0.5v0.9c0,3-2.4,5.4-5.4,5.4h-9.6c-3.5,0-6.3-2.8-6.3-6.3c0-0.4,0.1-0.5,0.2-0.5
			C846,493.6,846.7,494.3,847.6,494.3L847.6,494.3z"/>
	</g>
</g>
<g>
	<polygon points="1281.7,630.6 1486.6,849.6 1267.6,644.7 	"/>
</g>
<g>
	<polygon points="1226.2,546.1 1488.6,691.3 1217.1,563.9 	"/>
</g>
<g>
	<polygon points="1244.6,537.3 1449.1,318 1259.7,550.5 	"/>
</g>
</svg>
